<?xml version="1.0" encoding="UTF-8" standalone="no" ?>
<!DOCTYPE svg PUBLIC "-//W3C//DTD SVG 1.1//EN" "http://www.w3.org/Graphics/SVG/1.1/DTD/svg11.dtd">
<svg xmlns="http://www.w3.org/2000/svg" xmlns:xlink="http://www.w3.org/1999/xlink" version="1.1" width="1280" height="1024" viewBox="0 0 1280 1024" xml:space="preserve">
<desc>Created with Fabric.js 5.3.0</desc>
<defs>
</defs>
<g transform="matrix(1 0 0 1 640 512)" id="background-logo"  >
<rect style="stroke: none; stroke-width: 0; stroke-dasharray: none; stroke-linecap: butt; stroke-dashoffset: 0; stroke-linejoin: miter; stroke-miterlimit: 4; fill: rgb(255,255,255); fill-opacity: 0; fill-rule: nonzero; opacity: 1;"  paint-order="stroke"  x="-640" y="-512" rx="0" ry="0" width="1280" height="1024" />
</g>
<g transform="matrix(1.9211538461538462 0 0 1.9211538461538462 640 385.70473550889403)" id="logo-logo"  >
<g style=""  paint-order="stroke"   >
		<g transform="matrix(1.1209025527646757 0 0 -1.1209025527646757 0 24.95672365290028)"  >
<path style="stroke: none; stroke-width: 1; stroke-dasharray: none; stroke-linecap: butt; stroke-dashoffset: 0; stroke-linejoin: miter; stroke-miterlimit: 4; fill: rgb(227,148,59); fill-rule: evenodd; opacity: 1;"  paint-order="stroke"  transform=" translate(67.39237052003182, 52.021378634273816)" d="M 0 0 C -2.951 5.108 -6.38 9.767 -10.201 13.955 C -11.489 15.643 -13.866 16.153 -15.75 15.061 C -17.805 13.877 -18.508 11.253 -17.322 9.2 C -17.128999999999998 8.867999999999999 -16.897 8.569999999999999 -16.641 8.309999999999999 C -13.178999999999998 4.539999999999999 -10.076999999999998 0.3329999999999984 -7.409999999999998 -4.283000000000001 C 2.421000000000001 -21.312 4.422000000000002 -40.719 -0.29499999999999815 -58.322 C -5.011999999999998 -75.928 -16.447 -91.732 -33.479 -101.566 C -50.507999999999996 -111.4 -69.912 -113.396 -87.519 -108.679 C -105.123 -103.964 -120.927 -92.529 -130.761 -75.499 C -133.428 -70.881 -135.516 -66.091 -137.053 -61.208 C -137.147 -60.854 -137.289 -60.504999999999995 -137.482 -60.173 C -138.665 -58.120000000000005 -141.292 -57.417 -143.342 -58.603 C -145.23100000000002 -59.693000000000005 -145.977 -62.005 -145.15900000000002 -63.966 C -143.44400000000002 -69.368 -141.12300000000002 -74.667 -138.174 -79.779 C -127.16000000000001 -98.856 -109.45400000000001 -111.663 -89.73500000000001 -116.949 C -70.01400000000001 -122.232 -48.274000000000015 -119.994 -29.197000000000017 -108.979 C -10.12 -97.965 2.689 -80.258 7.97 -60.538 C 13.256 -40.816 11.018 -19.08 0 0" stroke-linecap="round" />
</g>
		<g transform="matrix(1.1209025527646757 0 0 -1.1209025527646757 -2.022925881145909 -9.228986813440855)"  >
<path style="stroke: none; stroke-width: 1; stroke-dasharray: none; stroke-linecap: butt; stroke-dashoffset: 0; stroke-linejoin: miter; stroke-miterlimit: 4; fill: rgb(227,148,59); fill-rule: evenodd; opacity: 1;"  paint-order="stroke"  transform=" translate(-37.4875, 8.817999999999998)" d="M 0 0 L 5.573 0 L 9.914 0 L 9.914 -26.636 L -1.642 -26.636 L -1.642 -26.394 L -1.642 -7.023999999999997 L -1.642 0 Z M 33.418 25.938 L 50.752 25.938 L 50.752 12.05 L 50.752 7.768 L 50.752 -7.518 L 50.752 -26.636 L 33.418 -26.636 Z M -7.813 -71.72 C 3.793 -83.328 19.826 -90.508 37.54 -90.508 C 55.248999999999995 -90.508 71.283 -83.328 82.89099999999999 -71.72 C 93.511 -61.101 100.42299999999999 -46.778 101.51799999999999 -30.853 C 101.55599999999998 -30.630000000000003 101.576 -30.403000000000002 101.576 -30.169 C 101.576 -27.8 99.65499999999999 -25.879 97.28299999999999 -25.879 C 94.98599999999999 -25.879 93.10799999999999 -27.69 93.00099999999999 -29.962000000000003 C 92.11 -43.877 86.105 -56.403 76.838 -65.67 C 66.781 -75.726 52.888 -81.947 37.54 -81.947 C 22.192 -81.947 8.293 -75.726 -1.759999999999998 -65.67 C -11.819999999999999 -55.611000000000004 -18.038999999999998 -41.717 -18.038999999999998 -26.370000000000005 L -18.041999999999998 -26.370000000000005 L -18.041999999999998 -24.344 L -18.041999999999998 0 L -10.203999999999997 0 L -10.203999999999997 -30.676 L -10.203999999999997 -35.195 L -9.986999999999997 -35.195 L -5.923999999999997 -35.195 L -1.6419999999999968 -35.195 L 14.196000000000002 -35.195 L 18.473000000000003 -35.195 L 18.473000000000003 -30.916 L 18.473000000000003 4.28 L 18.473000000000003 8.56 L 14.196 8.56 L 5.573 8.56 L 0 8.56 L -1.642 8.56 L -1.642 46.951 L 24.64 59.935 L 24.64 -7.024 L 24.64 -35.195 L 24.854 -35.195 L 29.136 -35.195 L 33.199 -35.195 L 43.626 -35.195 L 50.751999999999995 -35.195 L 55.028999999999996 -35.195 L 59.312 -35.195 L 59.312 -30.917 L 59.312 -26.636000000000003 L 59.312 -9.919000000000004 L 59.312 3.490999999999996 L 69.14699999999999 3.490999999999996 L 69.14699999999999 -9.919000000000004 L 69.14699999999999 -26.636000000000003 L 69.14699999999999 -35.195 L 73.42999999999999 -35.195 L 77.707 -35.195 L 77.707 -30.917 L 77.707 7.768000000000001 L 77.707 12.05 L 73.43 12.05 L 59.312 12.05 L 59.312 30.218 L 59.312 34.498 L 55.029 34.498 L 33.199 34.498 L 33.199 72.872 L -10.204 51.13 L -10.204 8.56 L -22.321 8.56 L -26.601000000000003 8.56 L -26.601000000000003 4.28 L -26.601000000000003 -27.794 L -26.565 -27.794 C -26.19 -44.936 -19.108 -60.426 -7.813000000000002 -71.72" stroke-linecap="round" />
</g>
		<g transform="matrix(1.1209025527646757 0 0 -1.1209025527646757 -2.394392987132221 52.20409521542214)"  >
<path style="stroke: none; stroke-width: 1; stroke-dasharray: none; stroke-linecap: butt; stroke-dashoffset: 0; stroke-linejoin: miter; stroke-miterlimit: 4; fill: rgb(227,148,59); fill-rule: evenodd; opacity: 1;"  paint-order="stroke"  transform=" translate(-17.534, 4.281499999999999)" d="M 0 0 C -2.356 0 -4.283 -1.927 -4.283 -4.279 C -4.283 -6.636 -2.3560000000000003 -8.562999999999999 0 -8.562999999999999 L 35.074 -8.562999999999999 C 37.424 -8.562999999999999 39.351 -6.635999999999999 39.351 -4.278999999999999 C 39.351 -1.927 37.43 0 35.074 0 Z" stroke-linecap="round" />
</g>
		<g transform="matrix(1.1209025527646757 0 0 -1.1209025527646757 -2.3942808968769214 34.92168338613058)"  >
<path style="stroke: none; stroke-width: 1; stroke-dasharray: none; stroke-linecap: butt; stroke-dashoffset: 0; stroke-linejoin: miter; stroke-miterlimit: 4; fill: rgb(227,148,59); fill-rule: evenodd; opacity: 1;"  paint-order="stroke"  transform=" translate(35.6885, -0.002000000000000668)" d="M 0 0 C 0 2.354 -1.926 4.283 -4.276 4.283 L -67.098 4.283 C -69.453 4.283 -71.377 2.354 -71.377 0 C -71.377 -2.354 -69.451 -4.279 -67.098 -4.279 L -4.276 -4.279 C -1.926 -4.279 0 -2.354 0 0" stroke-linecap="round" />
</g>
</g>
</g>
<g transform="matrix(1.9211538461538462 0 0 1.9211538461538462 640.8395442307692 685.2833713688186)" id="text-logo"  >
<g style=""  paint-order="stroke"   >
		<g transform="matrix(1 0 0 1 0 0)" id="text-logo-path-0"  >
<path style="stroke: none; stroke-width: 0; stroke-dasharray: none; stroke-linecap: butt; stroke-dashoffset: 0; stroke-linejoin: miter; stroke-miterlimit: 4; fill: rgb(227,148,59); fill-rule: nonzero; opacity: 1;"  paint-order="stroke"  transform=" translate(-93.48, 26.6)" d="M 17.94 -53.2 L 3.04 -53.2 L 3.04 0 L 11.4 0 L 11.4 -23.26 L 17.94 -23.26 C 22.72 -23.26 24.55 -21.51 24.55 -16.64 L 24.55 0 L 32.91 0 L 32.91 -16.64 C 32.91 -21.13 31.39 -24.85 28.73 -27.44 C 31.39 -30.1 32.91 -33.9 32.91 -38.23 C 32.91 -47.27 26.68 -53.2 17.94 -53.2 Z M 17.94 -31.62 L 11.4 -31.62 L 11.4 -44.84 L 17.94 -44.84 C 22.72 -44.84 24.55 -43.09 24.55 -38.23 C 24.55 -33.52 22.72 -31.62 17.94 -31.62 Z M 44.99 -53.2 L 44.99 0 L 70.07 0 L 70.07 -8.36 L 53.35 -8.36 L 53.35 -23.18 L 68.55 -23.18 L 68.55 -31.54 L 53.35 -31.54 L 53.35 -44.84 L 70.07 -44.84 L 70.07 -53.2 Z M 83.22 -53.2 L 83.22 0 L 108.3 0 L 108.3 -8.36 L 91.58 -8.36 L 91.58 -53.2 Z M 119.62 -53.2 L 119.62 0 L 144.7 0 L 144.7 -8.36 L 127.98 -8.36 L 127.98 -53.2 Z M 154.05 -39.06 L 154.05 -14.14 C 154.05 -5.47 159.98 0.76 169.02 0.76 C 177.69 0.76 183.92 -5.17 183.92 -14.14 L 183.92 -39.06 C 183.92 -47.73 177.99 -53.96 169.02 -53.96 C 160.36 -53.96 154.05 -48.18 154.05 -39.06 Z M 162.41 -14.14 L 162.41 -39.06 C 162.41 -43.93 164.24 -45.6 169.02 -45.6 C 173.81 -45.6 175.56 -43.78 175.56 -39.06 L 175.56 -14.14 C 175.56 -9.35 173.74 -7.6 169.02 -7.6 C 164.16 -7.6 162.41 -9.42 162.41 -14.14 Z" stroke-linecap="round" />
</g>
</g>
</g>
<g transform="matrix(1.9211538461538462 0 0 1.9211538461538462 639.8150889423079 792.1480535611263)" id="tagline-d56ebb2f-47b2-4477-8e87-adbf18e56344-logo"  >
<g style=""  paint-order="stroke"   >
		<g transform="matrix(1 0 0 1 -5.684342e-14 0)" id="tagline-d56ebb2f-47b2-4477-8e87-adbf18e56344-logo-path-0"  >
<path style="stroke: none; stroke-width: 0; stroke-dasharray: none; stroke-linecap: butt; stroke-dashoffset: 0; stroke-linejoin: miter; stroke-miterlimit: 4; fill: rgb(227,148,59); fill-rule: nonzero; opacity: 1;"  paint-order="stroke"  transform=" translate(-142.1, 12.25)" d="M 8.75 0.35 C 12.04 0.35 14.7 -0.56 14.7 -5.25 L 14.7 -5.95 C 14.7 -11.59 5.25 -15.19 5.25 -18.55 C 5.25 -21.74 6.62 -22.4 8.75 -22.4 C 10.89 -22.4 12.25 -21.74 12.25 -18.55 L 12.25 -17.15 L 14.7 -17.15 L 14.7 -19.25 C 14.7 -23.94 12.08 -24.85 8.75 -24.85 C 5.46 -24.85 2.8 -23.94 2.8 -19.25 L 2.8 -18.55 C 2.8 -13.51 12.25 -9.91 12.25 -5.95 C 12.25 -2.77 10.89 -2.1 8.75 -2.1 C 6.62 -2.1 5.25 -2.77 5.25 -5.95 L 5.25 -7.77 L 2.8 -7.77 L 2.8 -5.25 C 2.8 -0.63 5.43 0.35 8.75 0.35 Z M 39.45 -24.5 L 33.84 -24.5 L 33.84 -22.4 L 35.42 -22.4 L 35.42 -2.1 L 33.84 -2.1 L 33.84 0 L 39.45 0 L 39.45 -2.1 L 37.87 -2.1 L 37.87 -22.4 L 39.45 -22.4 Z M 59.29 -24.5 L 59.29 0 L 61.74 0 L 61.74 -18.55 L 69.37 0 L 71.82 0 L 71.82 -24.5 L 69.37 -24.5 L 69.37 -5.95 L 61.74 -24.5 Z M 101.64 -18.55 L 101.64 -15.05 L 104.09 -15.05 L 104.09 -19.25 C 104.09 -23.94 101.47 -24.85 98.14 -24.85 C 94.85 -24.85 92.19 -23.94 92.19 -19.25 L 92.19 -5.25 C 92.19 -0.56 94.85 0.35 98.14 0.35 C 101.47 0.35 104.09 -0.63 104.09 -5.25 L 104.09 -6.72 L 101.64 -6.72 L 101.64 -5.95 C 101.64 -2.77 100.28 -2.1 98.14 -2.1 C 96.01 -2.1 94.64 -2.77 94.64 -5.95 L 94.64 -18.55 C 94.64 -21.74 96.01 -22.4 98.14 -22.4 C 100.28 -22.4 101.64 -21.74 101.64 -18.55 Z M 124.11 -24.5 L 124.11 0 L 134.61 0 L 134.61 -2.1 L 126.56 -2.1 L 126.56 -11.2 L 132.51 -11.2 L 132.51 -13.3 L 126.56 -13.3 L 126.56 -22.4 L 134.26 -22.4 L 134.26 -24.5 Z M 186.2 -2.1 L 177.28 -2.1 L 184.77 -12.67 C 185.82 -14.18 186.2 -15.47 186.2 -17.26 L 186.2 -17.5 C 186.2 -22.19 183.93 -23.1 180.6 -23.1 C 177.28 -23.1 174.65 -22.19 174.65 -17.5 L 174.65 -16.63 L 177.1 -16.63 L 177.1 -17.15 C 177.1 -20.34 178.47 -21 180.6 -21 C 182.74 -21 183.75 -20.34 183.75 -17.15 L 183.75 -17.01 C 183.75 -15.89 183.47 -15.12 182.84 -14.21 L 174.3 -2.1 L 174.3 0 L 186.2 0 Z M 205.94 -17.5 L 205.94 -5.25 C 205.94 -0.56 208.6 0.35 211.89 0.35 C 215.22 0.35 217.84 -0.63 217.84 -5.25 L 217.84 -17.5 C 217.84 -22.19 215.22 -23.1 211.89 -23.1 C 208.6 -23.1 205.94 -22.19 205.94 -17.5 Z M 208.39 -5.95 L 208.39 -16.8 C 208.39 -19.99 209.76 -20.65 211.89 -20.65 C 214.03 -20.65 215.39 -19.99 215.39 -16.8 L 215.39 -5.95 C 215.39 -2.77 214.03 -2.1 211.89 -2.1 C 209.76 -2.1 208.39 -2.77 208.39 -5.95 Z M 249.76 -2.1 L 240.84 -2.1 L 248.33 -12.67 C 249.38 -14.18 249.76 -15.47 249.76 -17.26 L 249.76 -17.5 C 249.76 -22.19 247.49 -23.1 244.16 -23.1 C 240.84 -23.1 238.21 -22.19 238.21 -17.5 L 238.21 -16.63 L 240.66 -16.63 L 240.66 -17.15 C 240.66 -20.34 242.03 -21 244.16 -21 C 246.3 -21 247.31 -20.34 247.31 -17.15 L 247.31 -17.01 C 247.31 -15.89 247.03 -15.12 246.4 -14.21 L 237.86 -2.1 L 237.86 0 L 249.76 0 Z M 271.95 -17.15 L 271.95 -7.35 L 270.73 -8.05 C 270.73 -9.87 271.22 -11.13 271.95 -12.01 C 273.04 -13.27 274.65 -13.65 275.8 -13.65 C 278.74 -13.65 281.4 -12.74 281.4 -8.05 L 281.4 -5.25 C 281.4 -0.63 278.78 0.35 275.45 0.35 C 272.13 0.35 269.5 -0.63 269.5 -5.25 L 269.5 -17.5 C 269.5 -22.12 272.13 -23.1 275.45 -23.1 C 278.78 -23.1 281.4 -22.12 281.4 -17.5 L 281.4 -16.1 L 278.95 -16.1 L 278.95 -17.15 C 278.95 -20.34 277.59 -21 275.45 -21 C 273.32 -21 271.95 -20.34 271.95 -17.15 Z M 271.95 -5.6 C 271.95 -2.42 273.32 -1.75 275.45 -1.75 C 277.59 -1.75 278.95 -2.42 278.95 -5.6 L 278.95 -7.35 C 278.95 -10.54 277.59 -11.2 275.45 -11.2 C 273.32 -11.2 271.95 -10.54 271.95 -7.35 Z" stroke-linecap="round" />
</g>
</g>
</g>
</svg>